<svg id="Capa_1" enable-background="new 0 0 512 512" height="512" viewBox="0 0 512 512" width="512" xmlns="http://www.w3.org/2000/svg"><g><g><g><ellipse cx="256" cy="293.55" fill="#faf7f5" rx="246" ry="153.558"/></g><ellipse cx="256" cy="293.55" fill="#99ebfa" rx="110.483" ry="110.467"/><path d="m319.273 274.961h-53.6v-87.012l-72.946 124.189h53.6v87.012z" fill="#ffee80"/></g><g><path d="m10.65 213.555c4.114 3.685 10.436 3.338 14.121-.778 20.795-23.22 44.127-43.149 69.348-59.232 48.65-31.025 104.048-47.425 160.205-47.425s111.555 16.399 160.205 47.425c26.573 16.945 51.002 38.116 72.609 62.925 1.977 2.27 4.753 3.433 7.545 3.433 2.329 0 4.669-.81 6.564-2.459 4.165-3.627 4.6-9.944.973-14.108-15.67-17.992-32.759-34.187-51.035-48.383l15.25-15.248c3.905-3.904 3.906-10.236.001-14.142-3.905-3.905-10.236-3.905-14.142-.001l-17.451 17.448c-3.156-2.167-6.343-4.277-9.56-6.328-17.95-11.447-36.769-21.026-56.191-28.66l9.3-19.261c2.401-4.974.316-10.952-4.657-13.354s-10.952-.317-13.354 4.656l-10.232 21.191c-27.296-8.793-55.577-13.832-84.149-14.913v-21.448c0-5.522-4.477-10-10-10s-10 4.478-10 10v21.339c-28.697.774-57.13 5.544-84.594 14.101l-9.787-20.27c-2.402-4.974-8.38-7.06-13.354-4.656-4.974 2.401-7.059 8.38-4.657 13.354l8.772 18.166c-20.422 7.806-40.196 17.753-59.015 29.755-2.54 1.62-5.063 3.277-7.566 4.97l-16.092-16.09c-3.906-3.906-10.237-3.905-14.143.001-3.905 3.905-3.904 10.237.001 14.142l13.792 13.79c-17.649 13.518-34.221 28.896-49.485 45.941-3.684 4.113-3.336 10.434.778 14.119z"/><path d="m265.23 136.17c-1.611-3.934-5.703-6.455-9.942-6.148-4.206.305-7.85 3.307-8.943 7.382-1.067 3.977.491 8.315 3.833 10.717 3.433 2.468 8.21 2.468 11.643 0 3.727-2.679 5.177-7.711 3.409-11.951z"/><path d="m510.701 288.62c-46.968-82.901-122.726-139.192-207.849-154.439-5.436-.971-10.633 2.643-11.606 8.081-.974 5.436 2.644 10.632 8.08 11.607 77.56 13.892 146.934 64.678 191.126 139.683-52.99 90.002-140.248 143.555-234.452 143.555s-181.462-53.553-234.452-143.556c44.182-74.991 113.527-125.778 191.044-139.684 5.436-.976 9.052-6.173 8.077-11.608-.975-5.436-6.177-9.056-11.608-8.077-85.078 15.262-160.804 71.553-207.762 154.438-1.732 3.059-1.732 6.801 0 9.859 56.274 99.329 151.49 158.628 254.701 158.628s198.427-59.3 254.701-158.628c1.732-3.058 1.732-6.8 0-9.859z"/><path d="m135.517 293.55c0 66.426 54.049 120.467 120.483 120.467s120.483-54.041 120.483-120.467-54.048-120.468-120.483-120.468-120.483 54.042-120.483 120.468zm110.81 8.589h-36.128l45.475-77.42v50.242c0 5.522 4.477 10 10 10h36.129l-45.475 77.42v-50.242c-.001-5.523-4.478-10-10.001-10zm-90.81-8.589c0-53.718 42.384-97.724 95.471-100.344l-66.884 113.868c-1.816 3.092-1.838 6.92-.056 10.032 1.781 3.112 5.093 5.032 8.679 5.032h43.6v69.945c-46.021-9.169-80.81-49.866-80.81-98.533zm200.966 0c0 53.717-42.384 97.723-95.471 100.343l66.883-113.867c1.816-3.092 1.838-6.92.056-10.032-1.781-3.112-5.093-5.032-8.679-5.032h-43.6v-69.946c46.021 9.169 80.811 49.865 80.811 98.534z"/></g></g></svg>